<svg xmlns="http://www.w3.org/2000/svg" width="256" height="256" viewBox="0 0 100 100"><rect width="100" height="100" rx="20" fill="#4a90e2"></rect><path fill="#fff" d="M30.90 81.10L30.90 81.10Q27.20 81.10 25.70 79.75Q24.20 78.40 24.20 75.20L24.20 75.20L24.20 21.90Q25.30 20.50 27.45 19.70Q29.60 18.90 32.20 18.90L32.20 18.90Q35.30 18.90 37.75 20.00Q40.20 21.10 42.10 24.40L42.10 24.40L56.50 50.30Q58.50 53.90 60.35 57.75Q62.20 61.60 63.60 64.80L63.60 64.80L64 64.70Q63.50 58.80 63.35 53.25Q63.20 47.70 63.20 42.30L63.20 42.30L63.20 19.60Q64 19.40 65.65 19.15Q67.30 18.90 69 18.90L69 18.90Q72.70 18.90 74.25 20.25Q75.80 21.60 75.80 24.80L75.80 24.80L75.80 78.80Q74.70 79.90 72.65 80.50Q70.60 81.10 67.80 81.10L67.80 81.10Q64.80 81.10 62.35 80.05Q59.90 79.00 58 75.70L58 75.70L43.60 49.80Q41.60 46.30 39.75 42.35Q37.90 38.40 36.50 35.20L36.50 35.20L35.90 35.30Q36.40 40.80 36.55 46.60Q36.70 52.40 36.70 57.60L36.70 57.60L36.70 80.30Q35.90 80.50 34.30 80.80Q32.70 81.10 30.90 81.10Z"></path></svg>